# MagicaVoxel @ Ephtracy

# group
o 

# material
mtllib wolf.mtl
usemtl palette

# normals
vn -1 0 0
vn 1 0 0
vn 0 0 1
vn 0 0 -1
vn 0 -1 0
vn 0 1 0

# texcoords
vt 0.923828 0.5
vt 0.943359 0.5
vt 0.947266 0.5
vt 0.974609 0.5
vt 0.994141 0.5

# verts
v 0.3 0 -0.1
v 0.3 0 -0.2
v 0.3 0 -0.6
v 0.3 0 -0.7
v 0.3 0.1 -0.1
v 0.3 0.1 -0.2
v 0.3 0.1 -0.6
v 0.3 0.1 -0.7
v 0.3 0.2 -0.2
v 0.3 0.2 -0.3
v 0.3 0.2 -0.5
v 0.3 0.2 -0.6
v 0.3 0.3 -5.96046e-08
v 0.3 0.3 -0.1
v 0.3 0.3 -0.3
v 0.3 0.3 -0.5
v 0.3 0.3 -0.7
v 0.3 0.3 -0.9
v 0.3 0.5 -5.96046e-08
v 0.3 0.5 -0.6
v 0.3 0.5 -0.8
v 0.3 0.5 -0.9
v 0.3 0.6 -0.8
v 0.3 0.6 -0.9
v 0.3 0.7 -0.7
v 0.3 0.7 -0.9
v 0.3 0.8 -0.6
v 0.3 0.8 -0.7
v 0.4 0.1 0.2
v 0.4 0.1 0.0999999
v 0.4 0.2 0.0999999
v 0.4 0.2 -5.96046e-08
v 0.4 0.2 -0.3
v 0.4 0.2 -0.5
v 0.4 0.3 0.2
v 0.4 0.3 0.0999999
v 0.4 0.3 -5.96046e-08
v 0.4 0.3 -0.3
v 0.4 0.3 -0.5
v 0.4 0.3 -0.9
v 0.4 0.3 -1.1
v 0.4 0.4 0.0999999
v 0.4 0.4 -5.96046e-08
v 0.4 0.4 -0.9
v 0.4 0.4 -1.1
v 0.4 0.5 -0.9
v 0.4 0.5 -1.1
v 0.6 0 -0.1
v 0.6 0 -0.2
v 0.6 0 -0.6
v 0.6 0 -0.7
v 0.6 0.1 -0.1
v 0.6 0.1 -0.2
v 0.6 0.1 -0.6
v 0.6 0.1 -0.7
v 0.6 0.2 -0.1
v 0.6 0.2 -0.2
v 0.6 0.2 -0.6
v 0.6 0.2 -0.7
v 0.6 0.7 -0.6
v 0.6 0.7 -0.7
v 0.6 0.8 -0.6
v 0.6 0.8 -0.7
v 0.4 0 -0.1
v 0.4 0 -0.2
v 0.4 0 -0.6
v 0.4 0 -0.7
v 0.4 0.1 -0.1
v 0.4 0.1 -0.2
v 0.4 0.1 -0.6
v 0.4 0.1 -0.7
v 0.4 0.2 -0.1
v 0.4 0.2 -0.2
v 0.4 0.2 -0.6
v 0.4 0.2 -0.7
v 0.4 0.7 -0.6
v 0.4 0.7 -0.7
v 0.4 0.8 -0.6
v 0.4 0.8 -0.7
v 0.6 0.1 0.2
v 0.6 0.1 0.0999999
v 0.6 0.2 0.0999999
v 0.6 0.2 -5.96046e-08
v 0.6 0.2 -0.3
v 0.6 0.2 -0.5
v 0.6 0.3 0.2
v 0.6 0.3 0.0999999
v 0.6 0.3 -5.96046e-08
v 0.6 0.3 -0.3
v 0.6 0.3 -0.5
v 0.6 0.3 -0.9
v 0.6 0.3 -1.1
v 0.6 0.4 0.0999999
v 0.6 0.4 -5.96046e-08
v 0.6 0.4 -0.9
v 0.6 0.4 -1.1
v 0.6 0.5 -0.9
v 0.6 0.5 -1.1
v 0.7 0 -0.1
v 0.7 0 -0.2
v 0.7 0 -0.6
v 0.7 0 -0.7
v 0.7 0.1 -0.1
v 0.7 0.1 -0.2
v 0.7 0.1 -0.6
v 0.7 0.1 -0.7
v 0.7 0.2 -0.2
v 0.7 0.2 -0.3
v 0.7 0.2 -0.5
v 0.7 0.2 -0.6
v 0.7 0.3 -5.96046e-08
v 0.7 0.3 -0.1
v 0.7 0.3 -0.3
v 0.7 0.3 -0.5
v 0.7 0.3 -0.7
v 0.7 0.3 -0.9
v 0.7 0.5 -5.96046e-08
v 0.7 0.5 -0.6
v 0.7 0.5 -0.8
v 0.7 0.5 -0.9
v 0.7 0.6 -0.8
v 0.7 0.6 -0.9
v 0.7 0.7 -0.7
v 0.7 0.7 -0.9
v 0.7 0.8 -0.6
v 0.7 0.8 -0.7
v 0.4 0.1 0.2
v 0.4 0.3 0.2
v 0.6 0.1 0.2
v 0.6 0.3 0.2
v 0.4 0.3 0.0999999
v 0.4 0.4 0.0999999
v 0.6 0.3 0.0999999
v 0.6 0.4 0.0999999
v 0.3 0.3 -5.96046e-08
v 0.3 0.5 -5.96046e-08
v 0.4 0.3 -5.96046e-08
v 0.4 0.4 -5.96046e-08
v 0.6 0.3 -5.96046e-08
v 0.6 0.4 -5.96046e-08
v 0.7 0.3 -5.96046e-08
v 0.7 0.5 -5.96046e-08
v 0.3 0 -0.1
v 0.3 0.1 -0.1
v 0.3 0.3 -0.1
v 0.4 0 -0.1
v 0.4 0.1 -0.1
v 0.4 0.2 -0.1
v 0.6 0 -0.1
v 0.6 0.1 -0.1
v 0.6 0.2 -0.1
v 0.7 0 -0.1
v 0.7 0.1 -0.1
v 0.7 0.3 -0.1
v 0.3 0.2 -0.5
v 0.3 0.3 -0.5
v 0.4 0.2 -0.5
v 0.4 0.3 -0.5
v 0.6 0.2 -0.5
v 0.6 0.3 -0.5
v 0.7 0.2 -0.5
v 0.7 0.3 -0.5
v 0.3 0 -0.6
v 0.3 0.1 -0.6
v 0.3 0.2 -0.6
v 0.3 0.5 -0.6
v 0.3 0.8 -0.6
v 0.4 0 -0.6
v 0.4 0.1 -0.6
v 0.4 0.2 -0.6
v 0.4 0.7 -0.6
v 0.4 0.8 -0.6
v 0.6 0 -0.6
v 0.6 0.1 -0.6
v 0.6 0.2 -0.6
v 0.6 0.7 -0.6
v 0.6 0.8 -0.6
v 0.7 0 -0.6
v 0.7 0.1 -0.6
v 0.7 0.2 -0.6
v 0.7 0.5 -0.6
v 0.7 0.8 -0.6
v 0.4 0.1 0.0999999
v 0.4 0.2 0.0999999
v 0.6 0.1 0.0999999
v 0.6 0.2 0.0999999
v 0.4 0.2 -5.96046e-08
v 0.4 0.3 -5.96046e-08
v 0.6 0.2 -5.96046e-08
v 0.6 0.3 -5.96046e-08
v 0.3 0 -0.2
v 0.3 0.1 -0.2
v 0.3 0.2 -0.2
v 0.4 0 -0.2
v 0.4 0.1 -0.2
v 0.4 0.2 -0.2
v 0.6 0 -0.2
v 0.6 0.1 -0.2
v 0.6 0.2 -0.2
v 0.7 0 -0.2
v 0.7 0.1 -0.2
v 0.7 0.2 -0.2
v 0.3 0.2 -0.3
v 0.3 0.3 -0.3
v 0.4 0.2 -0.3
v 0.4 0.3 -0.3
v 0.6 0.2 -0.3
v 0.6 0.3 -0.3
v 0.7 0.2 -0.3
v 0.7 0.3 -0.3
v 0.3 0 -0.7
v 0.3 0.1 -0.7
v 0.3 0.3 -0.7
v 0.3 0.7 -0.7
v 0.3 0.8 -0.7
v 0.4 0 -0.7
v 0.4 0.1 -0.7
v 0.4 0.2 -0.7
v 0.4 0.7 -0.7
v 0.4 0.8 -0.7
v 0.6 0 -0.7
v 0.6 0.1 -0.7
v 0.6 0.2 -0.7
v 0.6 0.7 -0.7
v 0.6 0.8 -0.7
v 0.7 0 -0.7
v 0.7 0.1 -0.7
v 0.7 0.3 -0.7
v 0.7 0.7 -0.7
v 0.7 0.8 -0.7
v 0.3 0.3 -0.9
v 0.3 0.5 -0.9
v 0.3 0.6 -0.9
v 0.3 0.7 -0.9
v 0.4 0.3 -0.9
v 0.4 0.4 -0.9
v 0.4 0.5 -0.9
v 0.4 0.6 -0.9
v 0.6 0.3 -0.9
v 0.6 0.4 -0.9
v 0.6 0.5 -0.9
v 0.6 0.6 -0.9
v 0.7 0.3 -0.9
v 0.7 0.5 -0.9
v 0.7 0.6 -0.9
v 0.7 0.7 -0.9
v 0.4 0.3 -1.1
v 0.4 0.4 -1.1
v 0.4 0.5 -1.1
v 0.6 0.3 -1.1
v 0.6 0.4 -1.1
v 0.6 0.5 -1.1
v 0.3 0 -0.1
v 0.4 0 -0.1
v 0.6 0 -0.1
v 0.7 0 -0.1
v 0.3 0 -0.2
v 0.4 0 -0.2
v 0.6 0 -0.2
v 0.7 0 -0.2
v 0.3 0 -0.6
v 0.4 0 -0.6
v 0.6 0 -0.6
v 0.7 0 -0.6
v 0.3 0 -0.7
v 0.4 0 -0.7
v 0.6 0 -0.7
v 0.7 0 -0.7
v 0.4 0.1 0.2
v 0.6 0.1 0.2
v 0.4 0.1 0.0999999
v 0.6 0.1 0.0999999
v 0.4 0.2 0.0999999
v 0.6 0.2 0.0999999
v 0.4 0.2 -5.96046e-08
v 0.6 0.2 -5.96046e-08
v 0.4 0.2 -0.1
v 0.6 0.2 -0.1
v 0.3 0.2 -0.2
v 0.4 0.2 -0.2
v 0.6 0.2 -0.2
v 0.7 0.2 -0.2
v 0.3 0.2 -0.3
v 0.4 0.2 -0.3
v 0.6 0.2 -0.3
v 0.7 0.2 -0.3
v 0.3 0.2 -0.5
v 0.4 0.2 -0.5
v 0.6 0.2 -0.5
v 0.7 0.2 -0.5
v 0.3 0.2 -0.6
v 0.4 0.2 -0.6
v 0.6 0.2 -0.6
v 0.7 0.2 -0.6
v 0.4 0.2 -0.7
v 0.6 0.2 -0.7
v 0.3 0.3 -5.96046e-08
v 0.4 0.3 -5.96046e-08
v 0.6 0.3 -5.96046e-08
v 0.7 0.3 -5.96046e-08
v 0.3 0.3 -0.1
v 0.7 0.3 -0.1
v 0.3 0.3 -0.3
v 0.4 0.3 -0.3
v 0.6 0.3 -0.3
v 0.7 0.3 -0.3
v 0.3 0.3 -0.5
v 0.4 0.3 -0.5
v 0.6 0.3 -0.5
v 0.7 0.3 -0.5
v 0.3 0.3 -0.7
v 0.7 0.3 -0.7
v 0.3 0.3 -0.9
v 0.4 0.3 -0.9
v 0.6 0.3 -0.9
v 0.7 0.3 -0.9
v 0.4 0.3 -1.1
v 0.6 0.3 -1.1
v 0.4 0.3 0.2
v 0.6 0.3 0.2
v 0.4 0.3 0.0999999
v 0.6 0.3 0.0999999
v 0.4 0.4 0.0999999
v 0.6 0.4 0.0999999
v 0.4 0.4 -5.96046e-08
v 0.6 0.4 -5.96046e-08
v 0.3 0.5 -5.96046e-08
v 0.7 0.5 -5.96046e-08
v 0.3 0.5 -0.6
v 0.7 0.5 -0.6
v 0.4 0.5 -0.9
v 0.6 0.5 -0.9
v 0.4 0.5 -1.1
v 0.6 0.5 -1.1
v 0.4 0.7 -0.6
v 0.6 0.7 -0.6
v 0.3 0.7 -0.7
v 0.4 0.7 -0.7
v 0.6 0.7 -0.7
v 0.7 0.7 -0.7
v 0.3 0.7 -0.9
v 0.7 0.7 -0.9
v 0.3 0.8 -0.6
v 0.4 0.8 -0.6
v 0.6 0.8 -0.6
v 0.7 0.8 -0.6
v 0.3 0.8 -0.7
v 0.4 0.8 -0.7
v 0.6 0.8 -0.7
v 0.7 0.8 -0.7

# faces
f 5/2/1 2/2/1 1/2/1
f 6/2/1 2/2/1 5/2/1
f 7/2/1 4/2/1 3/2/1
f 8/2/1 4/2/1 7/2/1
f 9/1/1 6/1/1 5/1/1
f 12/1/1 8/1/1 7/1/1
f 14/1/1 10/1/1 9/1/1
f 14/1/1 9/1/1 5/1/1
f 15/1/1 10/1/1 14/1/1
f 16/1/1 12/1/1 11/1/1
f 17/1/1 8/1/1 12/1/1
f 17/1/1 12/1/1 16/1/1
f 19/1/1 17/1/1 16/1/1
f 19/1/1 18/1/1 17/1/1
f 19/1/1 15/1/1 14/1/1
f 19/1/1 14/1/1 13/1/1
f 19/1/1 16/1/1 15/1/1
f 20/1/1 18/1/1 19/1/1
f 21/1/1 18/1/1 20/1/1
f 22/1/1 18/1/1 21/1/1
f 23/1/1 21/1/1 20/1/1
f 23/5/1 22/5/1 21/5/1
f 24/5/1 22/5/1 23/5/1
f 25/1/1 23/1/1 20/1/1
f 25/1/1 24/1/1 23/1/1
f 26/1/1 24/1/1 25/1/1
f 27/1/1 25/1/1 20/1/1
f 28/1/1 25/1/1 27/1/1
f 31/2/1 30/2/1 29/2/1
f 35/2/1 31/2/1 29/2/1
f 35/2/1 32/2/1 31/2/1
f 36/2/1 32/2/1 35/2/1
f 37/2/1 32/2/1 36/2/1
f 38/1/1 34/1/1 33/1/1
f 39/1/1 34/1/1 38/1/1
f 42/2/1 37/2/1 36/2/1
f 43/2/1 37/2/1 42/2/1
f 44/3/1 41/3/1 40/3/1
f 45/3/1 41/3/1 44/3/1
f 46/4/1 45/4/1 44/4/1
f 47/4/1 45/4/1 46/4/1
f 52/2/1 49/2/1 48/2/1
f 53/2/1 49/2/1 52/2/1
f 54/2/1 51/2/1 50/2/1
f 55/2/1 51/2/1 54/2/1
f 56/1/1 53/1/1 52/1/1
f 57/1/1 53/1/1 56/1/1
f 58/1/1 55/1/1 54/1/1
f 59/1/1 55/1/1 58/1/1
f 62/1/1 61/1/1 60/1/1
f 63/1/1 61/1/1 62/1/1
f 64/2/2 65/2/2 68/2/2
f 68/2/2 65/2/2 69/2/2
f 66/2/2 67/2/2 70/2/2
f 70/2/2 67/2/2 71/2/2
f 68/1/2 69/1/2 72/1/2
f 72/1/2 69/1/2 73/1/2
f 70/1/2 71/1/2 74/1/2
f 74/1/2 71/1/2 75/1/2
f 76/1/2 77/1/2 78/1/2
f 78/1/2 77/1/2 79/1/2
f 80/2/2 81/2/2 82/2/2
f 80/2/2 82/2/2 86/2/2
f 82/2/2 83/2/2 86/2/2
f 86/2/2 83/2/2 87/2/2
f 87/2/2 83/2/2 88/2/2
f 84/1/2 85/1/2 89/1/2
f 89/1/2 85/1/2 90/1/2
f 87/2/2 88/2/2 93/2/2
f 93/2/2 88/2/2 94/2/2
f 91/3/2 92/3/2 95/3/2
f 95/3/2 92/3/2 96/3/2
f 95/4/2 96/4/2 97/4/2
f 97/4/2 96/4/2 98/4/2
f 99/2/2 100/2/2 103/2/2
f 103/2/2 100/2/2 104/2/2
f 101/2/2 102/2/2 105/2/2
f 105/2/2 102/2/2 106/2/2
f 103/1/2 104/1/2 107/1/2
f 105/1/2 106/1/2 110/1/2
f 107/1/2 108/1/2 112/1/2
f 103/1/2 107/1/2 112/1/2
f 112/1/2 108/1/2 113/1/2
f 109/1/2 110/1/2 114/1/2
f 110/1/2 106/1/2 115/1/2
f 114/1/2 110/1/2 115/1/2
f 114/1/2 115/1/2 117/1/2
f 115/1/2 116/1/2 117/1/2
f 112/1/2 113/1/2 117/1/2
f 111/1/2 112/1/2 117/1/2
f 113/1/2 114/1/2 117/1/2
f 117/1/2 116/1/2 118/1/2
f 118/1/2 116/1/2 119/1/2
f 119/1/2 116/1/2 120/1/2
f 118/1/2 119/1/2 121/1/2
f 119/5/2 120/5/2 121/5/2
f 121/5/2 120/5/2 122/5/2
f 118/1/2 121/1/2 123/1/2
f 121/1/2 122/1/2 123/1/2
f 123/1/2 122/1/2 124/1/2
f 118/1/2 123/1/2 125/1/2
f 125/1/2 123/1/2 126/1/2
f 129/2/3 128/2/3 127/2/3
f 130/2/3 128/2/3 129/2/3
f 133/2/3 132/2/3 131/2/3
f 134/2/3 132/2/3 133/2/3
f 137/1/3 136/1/3 135/1/3
f 138/1/3 136/1/3 137/1/3
f 140/1/3 136/1/3 138/1/3
f 141/1/3 140/1/3 139/1/3
f 142/1/3 136/1/3 140/1/3
f 142/1/3 140/1/3 141/1/3
f 146/2/3 144/2/3 143/2/3
f 147/1/3 145/1/3 144/1/3
f 147/2/3 144/2/3 146/2/3
f 148/1/3 145/1/3 147/1/3
f 151/1/3 145/1/3 148/1/3
f 152/2/3 150/2/3 149/2/3
f 153/1/3 151/1/3 150/1/3
f 153/2/3 150/2/3 152/2/3
f 154/1/3 145/1/3 151/1/3
f 154/1/3 151/1/3 153/1/3
f 157/1/3 156/1/3 155/1/3
f 158/1/3 156/1/3 157/1/3
f 161/1/3 160/1/3 159/1/3
f 162/1/3 160/1/3 161/1/3
f 168/2/3 164/2/3 163/2/3
f 169/1/3 165/1/3 164/1/3
f 169/2/3 164/2/3 168/2/3
f 170/1/3 165/1/3 169/1/3
f 171/1/3 167/1/3 166/1/3
f 172/1/3 167/1/3 171/1/3
f 176/1/3 171/1/3 166/1/3
f 178/2/3 174/2/3 173/2/3
f 179/1/3 175/1/3 174/1/3
f 179/2/3 174/2/3 178/2/3
f 180/1/3 175/1/3 179/1/3
f 181/1/3 177/1/3 176/1/3
f 181/1/3 176/1/3 166/1/3
f 182/1/3 177/1/3 181/1/3
f 183/2/4 184/2/4 185/2/4
f 185/2/4 184/2/4 186/2/4
f 187/2/4 188/2/4 189/2/4
f 189/2/4 188/2/4 190/2/4
f 191/2/4 192/2/4 194/2/4
f 192/1/4 193/1/4 195/1/4
f 194/2/4 192/2/4 195/2/4
f 195/1/4 193/1/4 196/1/4
f 197/2/4 198/2/4 200/2/4
f 198/1/4 199/1/4 201/1/4
f 200/2/4 198/2/4 201/2/4
f 201/1/4 199/1/4 202/1/4
f 203/1/4 204/1/4 205/1/4
f 205/1/4 204/1/4 206/1/4
f 207/1/4 208/1/4 209/1/4
f 209/1/4 208/1/4 210/1/4
f 211/2/4 212/2/4 216/2/4
f 212/1/4 213/1/4 217/1/4
f 216/2/4 212/2/4 217/2/4
f 217/1/4 213/1/4 218/1/4
f 214/1/4 215/1/4 219/1/4
f 219/1/4 215/1/4 220/1/4
f 218/1/4 213/1/4 223/1/4
f 221/2/4 222/2/4 226/2/4
f 222/1/4 223/1/4 227/1/4
f 226/2/4 222/2/4 227/2/4
f 223/1/4 213/1/4 228/1/4
f 227/1/4 223/1/4 228/1/4
f 224/1/4 225/1/4 229/1/4
f 229/1/4 225/1/4 230/1/4
f 231/1/4 232/1/4 235/1/4
f 235/1/4 232/1/4 236/1/4
f 232/5/4 233/5/4 237/5/4
f 236/1/4 232/1/4 237/1/4
f 233/1/4 234/1/4 238/1/4
f 237/5/4 233/5/4 238/5/4
f 237/1/4 238/1/4 241/1/4
f 238/1/4 234/1/4 242/1/4
f 241/1/4 238/1/4 242/1/4
f 240/1/4 241/1/4 243/1/4
f 239/1/4 240/1/4 243/1/4
f 241/5/4 242/5/4 244/5/4
f 243/1/4 241/1/4 244/1/4
f 242/1/4 234/1/4 245/1/4
f 244/5/4 242/5/4 245/5/4
f 245/1/4 234/1/4 246/1/4
f 247/3/4 248/3/4 250/3/4
f 248/4/4 249/4/4 251/4/4
f 250/3/4 248/3/4 251/3/4
f 251/4/4 249/4/4 252/4/4
f 257/2/5 254/2/5 253/2/5
f 258/2/5 254/2/5 257/2/5
f 259/2/5 256/2/5 255/2/5
f 260/2/5 256/2/5 259/2/5
f 265/2/5 262/2/5 261/2/5
f 266/2/5 262/2/5 265/2/5
f 267/2/5 264/2/5 263/2/5
f 268/2/5 264/2/5 267/2/5
f 271/2/5 270/2/5 269/2/5
f 272/2/5 270/2/5 271/2/5
f 275/2/5 274/2/5 273/2/5
f 276/2/5 274/2/5 275/2/5
f 280/1/5 278/1/5 277/1/5
f 281/1/5 278/1/5 280/1/5
f 283/1/5 281/1/5 280/1/5
f 283/1/5 282/1/5 281/1/5
f 283/1/5 280/1/5 279/1/5
f 284/1/5 282/1/5 283/1/5
f 285/1/5 282/1/5 284/1/5
f 286/1/5 282/1/5 285/1/5
f 288/1/5 285/1/5 284/1/5
f 289/1/5 285/1/5 288/1/5
f 291/1/5 288/1/5 287/1/5
f 291/1/5 290/1/5 289/1/5
f 291/1/5 289/1/5 288/1/5
f 292/1/5 290/1/5 291/1/5
f 293/1/5 290/1/5 292/1/5
f 294/1/5 290/1/5 293/1/5
f 295/1/5 293/1/5 292/1/5
f 296/1/5 293/1/5 295/1/5
f 301/1/5 298/1/5 297/1/5
f 301/1/5 300/1/5 299/1/5
f 301/1/5 299/1/5 298/1/5
f 302/1/5 300/1/5 301/1/5
f 307/1/5 304/1/5 303/1/5
f 308/1/5 304/1/5 307/1/5
f 309/1/5 306/1/5 305/1/5
f 310/1/5 306/1/5 309/1/5
f 313/1/5 312/1/5 311/1/5
f 314/1/5 312/1/5 313/1/5
f 315/1/5 312/1/5 314/1/5
f 316/1/5 312/1/5 315/1/5
f 317/3/5 315/3/5 314/3/5
f 318/3/5 315/3/5 317/3/5
f 319/2/6 320/2/6 321/2/6
f 321/2/6 320/2/6 322/2/6
f 323/2/6 324/2/6 325/2/6
f 325/2/6 324/2/6 326/2/6
f 327/1/6 328/1/6 329/1/6
f 329/1/6 328/1/6 330/1/6
f 331/4/6 332/4/6 333/4/6
f 333/4/6 332/4/6 334/4/6
f 335/1/6 336/1/6 338/1/6
f 338/1/6 336/1/6 339/1/6
f 337/1/6 338/1/6 341/1/6
f 339/1/6 340/1/6 341/1/6
f 338/1/6 339/1/6 341/1/6
f 341/1/6 340/1/6 342/1/6
f 343/1/6 344/1/6 347/1/6
f 347/1/6 344/1/6 348/1/6
f 345/1/6 346/1/6 349/1/6
f 349/1/6 346/1/6 350/1/6
